<svg width="40" height="40" viewBox="0 0 40 40" fill="none" xmlns="http://www.w3.org/2000/svg">
<path d="M7.67285 7.88072C8.33414 7.28555 8.57975 8.11138 9.1748 8.77037L16.3555 18.4647C16.8893 19.0553 16.9107 19.9481 16.4053 20.5624L10.5312 28.9891L10.8945 29.4188L19.0225 23.9051C19.6296 23.343 20.5657 23.3313 21.1846 23.8817L30.5879 31.618C31.2539 32.2086 31.9863 32.5557 31.4785 33.1249L29.6318 35.1278C29.0412 35.794 28.0249 35.8556 27.3564 35.2674L27.3613 35.2723L23.1191 31.9247L23.9814 36.7225C23.9814 37.6129 23.2605 38.3328 22.3701 38.3329H18.0586C17.1683 38.3326 16.4483 37.6128 16.4482 36.7225L17.3701 32.0858L13.958 35.246C13.332 35.8245 12.3665 35.8174 11.75 35.2294L5.17578 28.9413C4.5688 28.3601 4.51012 27.4085 5.04395 26.7567L8.6123 22.3924L2.99805 23.4022C2.10751 23.4022 1.38672 22.6814 1.38672 21.7909V17.4803C1.38672 16.5897 2.10751 15.869 2.99805 15.869L8.88184 17.0399L5.55371 12.035C4.95862 11.3736 5.01053 10.3558 5.67188 9.7606L7.67285 7.88072Z" fill="#FFA101"/>
<path d="M22.1808 1.70117C23.0713 1.70117 23.792 2.42115 23.7922 3.31152L22.8683 7.94922L26.2824 4.78809C26.9082 4.20962 27.8738 4.21678 28.4904 4.80469L35.0646 11.0928C35.6718 11.6739 35.7313 12.6264 35.1974 13.2783L31.6271 17.6406L37.2424 16.6318C38.1329 16.6318 38.8537 17.3527 38.8537 18.2432V22.5537C38.8537 23.4443 38.1329 24.165 37.2424 24.165L31.3576 22.9932L34.6867 27.999C35.2818 28.6605 35.2299 29.6782 34.5685 30.2734L32.5871 32.1328C32.0202 32.6265 31.6608 31.9222 31.0656 31.2607L23.8849 21.5664C23.351 20.9759 23.3297 20.083 23.8351 19.4688L29.7101 11.043L29.3459 10.6133L21.2179 16.127C20.6108 16.6891 19.6747 16.7008 19.0558 16.1504L9.65057 8.41211C8.98448 7.8216 8.17358 7.55174 8.76385 6.88574L10.6066 4.90137C11.1972 4.2353 12.2135 4.17453 12.882 4.7627H12.8791L17.1203 8.1084L16.259 3.31152C16.2592 2.42115 16.9799 1.70117 17.8703 1.70117H22.1808Z" fill="#F95B00"/>
</svg>
